<svg width="500" height="500" viewBox="0 0 500 500" fill="none" xmlns="http://www.w3.org/2000/svg">
<g clip-path="url(#clip0_349_4049)">
<path d="M32.276 307.404C21.8194 296.947 14.7912 284.776 11.1914 270.891C7.67731 256.921 7.6773 243.036 11.1914 229.236C14.7912 215.351 21.8194 203.181 32.276 192.724C42.8183 182.182 54.9891 175.153 68.7884 171.639C82.6734 168.04 96.6012 167.997 110.572 171.511C124.543 175.025 136.756 182.01 147.213 192.467L175.497 220.751L221.009 175.239L192.725 146.955C182.268 136.498 175.24 124.328 171.64 110.443C168.04 96.5577 167.997 82.7155 171.511 68.9163C175.111 55.0313 182.182 42.8177 192.725 32.2754C203.267 21.7331 215.438 14.7049 229.237 11.1908C243.036 7.67667 256.878 7.71952 270.763 11.3193C284.734 14.8334 296.948 21.8188 307.404 32.2754C317.947 42.8177 324.932 55.0313 328.36 68.9163C331.96 82.8013 332.003 96.6434 328.489 110.443C325.06 124.328 318.075 136.541 307.533 147.084L279.506 175.111L325.146 220.751L353.173 192.724C363.716 182.182 375.886 175.154 389.686 171.639C403.485 168.125 417.284 168.125 431.083 171.639C445.054 175.153 457.311 182.182 467.853 192.724C478.395 203.266 485.381 215.48 488.809 229.365C492.323 243.164 492.323 256.963 488.809 270.763C485.295 284.562 478.267 296.733 467.724 307.275C457.182 317.817 444.968 324.888 431.083 328.488C417.284 332.002 403.485 332.002 389.686 328.488C375.886 324.974 363.716 317.946 353.173 307.404L325.018 279.248L279.506 324.76L307.661 352.916C318.204 363.458 325.189 375.671 328.617 389.556C332.046 403.441 331.96 417.326 328.36 431.211C324.846 445.011 317.818 457.181 307.276 467.724C296.819 478.18 284.648 485.209 270.763 488.808C256.964 492.322 243.122 492.365 229.237 488.937C215.438 485.423 203.267 478.395 192.725 467.852C182.182 457.31 175.111 445.096 171.511 431.211C168.083 417.326 168.126 403.484 171.64 389.685C175.24 375.8 182.268 363.629 192.725 353.173L221.009 324.888L175.368 279.248L147.084 307.532C136.628 317.989 124.414 324.974 110.443 328.488C96.644 332.002 82.759 332.002 68.7884 328.488C54.9891 324.974 42.8183 317.946 32.276 307.404ZM61.5887 278.091C66.817 283.319 72.7738 286.79 79.4592 288.505C86.2303 290.305 93.0442 290.347 99.901 288.633C106.758 286.919 112.757 283.491 117.9 278.348L146.184 250.064L117.9 221.78C112.757 216.637 106.758 213.209 99.901 211.494C93.1299 209.695 86.316 209.652 79.4592 211.366C72.6881 213.166 66.6885 216.68 61.4602 221.908C56.3176 227.051 52.8463 233.008 51.0464 239.779C49.3322 246.635 49.3751 253.449 51.175 260.22C52.9749 266.991 56.4461 272.948 61.5887 278.091ZM222.037 117.642L250.322 145.926L278.349 117.899C283.577 112.671 287.005 106.671 288.634 99.9004C290.348 93.0436 290.305 86.2297 288.505 79.4586C286.791 72.7732 283.32 66.8164 278.092 61.5881C272.949 56.4455 266.992 52.9743 260.221 51.1744C253.45 49.3745 246.636 49.3316 239.779 51.0458C233.094 52.76 227.137 56.2312 221.909 61.4595C216.681 66.6878 213.166 72.6875 211.367 79.4586C209.738 86.2296 209.824 93.0007 211.624 99.7718C213.424 106.543 216.895 112.5 222.037 117.642ZM354.33 249.935L382.486 278.091C387.714 283.319 393.671 286.79 400.356 288.505C407.042 290.219 413.727 290.219 420.413 288.505C427.269 286.79 433.312 283.319 438.54 278.091C443.768 272.863 447.197 266.863 448.825 260.092C450.625 253.321 450.668 246.593 448.954 239.907C447.24 233.222 443.768 227.265 438.54 222.037C433.312 216.808 427.312 213.294 420.541 211.494C413.77 209.695 406.999 209.695 400.228 211.494C393.543 213.209 387.586 216.68 382.357 221.908L354.33 249.935ZM222.037 438.54C227.266 443.768 233.222 447.239 239.908 448.953C246.593 450.667 253.321 450.625 260.092 448.825C266.949 447.11 272.949 443.682 278.092 438.54C283.32 433.311 286.791 427.269 288.505 420.412C290.305 413.641 290.348 406.913 288.634 400.227C287.005 393.456 283.577 387.457 278.349 382.228L250.193 354.073L221.909 382.357C216.766 387.499 213.295 393.456 211.495 400.227C209.695 406.998 209.695 413.769 211.495 420.54C213.295 427.312 216.809 433.311 222.037 438.54ZM204.681 249.935L250.322 295.576L295.833 250.064L250.193 204.423L204.681 249.935Z" fill="#3060FF"/>
</g>
<defs>
<clipPath id="clip0_349_4049">
<rect width="500" height="500" fill="white"/>
</clipPath>
</defs>
</svg>
